<?xml version="1.0" encoding="UTF-8"?>
<svg id="Layer_1" xmlns="http://www.w3.org/2000/svg" version="1.1" viewBox="0 0 1080 1080">
  <!-- Generator: Adobe Illustrator 29.5.0, SVG Export Plug-In . SVG Version: 2.1.0 Build 137)  -->
  <path d="M898.51,672.58c-49.79,16.91-105.14,3.52-141.7-34.49-8.46-8.8-20.67-11.9-31.85-8.11l-276.08,93.75c-11.18,3.8-18.97,13.69-20.33,25.82-5.96,53.28-42.78,98.3-93.89,114.46-33.22,10.57-68.93,7.92-100.56-7.47-31.63-15.39-55.75-41.86-67.92-74.53-12.03-32.31-11.42-67.61,1.73-99.39,4.56-11.02.21-23.83-10.12-29.8-29.79-17.21-51.77-44.83-61.9-77.79-10.24-33.32-7.23-69,8.49-100.47,15.72-31.47,42.43-55.32,75.22-67.16.82-.3,1.64-.58,2.46-.86,49.79-16.91,105.15-3.52,141.71,34.49,8.46,8.8,20.67,11.9,31.85,8.11l276.08-93.75c11.18-3.8,18.97-13.69,20.33-25.83,5.96-53.27,42.76-98.25,93.89-114.46,33.22-10.57,68.93-7.92,100.56,7.47,31.63,15.39,55.75,41.86,67.92,74.53,12.03,32.31,11.42,67.61-1.73,99.4h0c-4.56,11.02-.21,23.83,10.12,29.8,29.78,17.2,51.77,44.83,61.9,77.79,10.24,33.32,7.23,69-8.49,100.47-15.72,31.47-42.43,55.32-75.22,67.16-.82.3-1.65.59-2.47.87ZM440.35,698.64l276.08-93.75c20.7-7.03,44.03-1.21,59.46,14.83,29.92,31.11,75.53,41.69,116.08,27.07,26.36-9.52,47.85-28.72,60.52-54.08,12.66-25.36,15.1-54.07,6.87-80.85-8.16-26.54-25.85-48.79-49.82-62.63-21.79-12.59-30.97-39.61-21.35-62.87,10.58-25.58,11.08-54,1.39-80.02-9.78-26.26-29.2-47.55-54.68-59.95-25.48-12.4-54.23-14.55-80.93-6.05-41.08,13.1-70.8,49.27-75.6,92.16-2.47,22.11-17.44,40.94-38.14,47.97l-276.08,93.75c-20.7,7.03-44.03,1.21-59.46-14.83-29.92-31.1-75.48-41.73-116.08-27.07-26.36,9.52-47.85,28.72-60.52,54.08-12.66,25.35-15.1,54.07-6.87,80.85,8.16,26.54,25.85,48.79,49.83,62.63,21.79,12.59,30.97,39.61,21.35,62.87-10.58,25.58-11.08,54-1.39,80.02,9.78,26.26,29.2,47.55,54.68,59.95,25.48,12.4,54.22,14.55,80.93,6.04.67-.21,1.34-.43,2-.66,40.09-13.61,68.88-49.31,73.6-91.51,2.47-22.11,17.44-40.94,38.14-47.97Z"/>
  <g>
    <path d="M336.14,694.6c-6.62,2.25-11.12,3.24-13.52,2.98-2.39-.26-4.4-1.42-6.03-3.49l-88.52-110.6c-.89-2.62,3.01-7.32,11.69-14.12,8.68-6.79,18.06-11.9,28.12-15.31,12.95-4.4,21.23-2.67,24.82,5.18l29.28,63.15,2.89-.98-16.47-67.5c-2.07-8.37,5.85-15.59,23.77-21.68,6.89-2.34,11.82-2.98,14.8-1.91,2.97,1.07,5.11,3.07,6.42,6.01l29.78,65.29,2.89-.98-16.88-67.36c-.94-4.14,2.75-8.77,11.07-13.91,8.32-5.13,16.93-9.21,25.82-12.23,8.89-3.02,15.4-3.77,19.53-2.25,4.13,1.52,6.68,3.73,7.67,6.62l-.72,143.21c-.07,4.79-9.54,10.39-28.42,16.8-5.65,1.92-9.61,2.73-11.86,2.41-2.26-.31-4.13-1.52-5.61-3.63l-22.97-32.32-2.48.84,1.26,39.69c.21,4.7-8.57,10.06-26.35,16.1Z"/>
    <path d="M597.25,591.29c-8.02,13.72-22.82,24.24-44.39,31.56-21.57,7.33-39.82,8.03-54.74,2.1-14.92-5.92-25.76-18.81-32.5-38.66l-25.76-75.88c-1.17-3.44,1.67-7.87,8.52-13.27,6.85-5.4,15.45-9.86,25.78-13.37,8.27-2.81,14.18-3.05,17.74-.72,2.63,1.87,4.26,3.71,4.86,5.5l20.92,61.61c5.29,15.58,9.37,25.68,12.25,30.31,2.88,4.64,6.25,6.3,10.11,4.98,3.86-1.31,5.47-4.59,4.85-9.83-.63-5.24-3.65-15.86-9.08-31.85l-20.08-59.13c-1.17-3.44,1.67-7.87,8.52-13.27,6.85-5.4,15.38-9.83,25.58-13.3,8.68-2.95,14.73-3.23,18.15-.86,2.5,1.92,4.05,3.78,4.66,5.57l26.54,78.15c6.74,19.85,6.1,36.63-1.93,50.35Z"/>
    <path d="M675.02,577.91c-8.56,3.99-16.84,7.33-24.84,10.05-7.99,2.71-13.33,3.99-16,3.82-2.67-.17-4.36-1.29-5.06-3.35l-44.51-131.08c-1.22-3.58-.29-6.74,2.78-9.47,3.07-2.73,9.57-5.78,19.49-9.15l76.7-26.05c2.89-.98,6.11,3.73,9.64,14.13s5.57,18.56,6.11,24.44c.54,5.89-.23,9.19-2.29,9.89l-42.67,12.18,4.77,14.06c18.05-7.05,30.18-11.63,36.38-13.74,2.07-.7,3.85-.08,5.36,1.87,1.5,1.95,3.32,6.06,5.45,12.33s3.48,12.5,4.04,18.69c.56,6.19-.39,9.7-2.88,10.55l-34.74,10.41,14.04,41.35c.7,2.07-3.23,5.1-11.79,9.08Z"/>
    <path d="M792.04,538.18c-8.56,3.98-16.84,7.33-24.83,10.05s-13.33,3.99-16,3.82c-2.67-.17-4.36-1.29-5.06-3.35l-44.51-131.08c-1.22-3.58-.29-6.74,2.78-9.47,3.07-2.73,9.57-5.78,19.49-9.15l76.7-26.05c2.9-.98,6.11,3.73,9.64,14.13,3.53,10.41,5.57,18.56,6.11,24.44.54,5.89-.23,9.19-2.29,9.89l-42.67,12.18,4.77,14.06c18.05-7.05,30.18-11.63,36.38-13.74,2.07-.7,3.85-.08,5.36,1.87,1.51,1.95,3.32,6.06,5.45,12.33s3.48,12.5,4.04,18.69c.56,6.19-.39,9.7-2.88,10.55l-34.74,10.41,14.04,41.35c.7,2.07-3.23,5.09-11.79,9.08Z"/>
  </g>
</svg>